<?xml version='1.0' encoding='utf-8'?>
<svg xmlns="http://www.w3.org/2000/svg" width="2000" height="2000" viewBox="0 0 529.16665 529.16668" version="1.1" id="svg1626"> <defs id="defs1623"/> <g id="layer1"> <rect style="fill:#eef4d7;fill-opacity:1;stroke:none;stroke-width:10;stroke-linecap:round;stroke-linejoin:round;stroke-opacity:0.286275" id="rect124127" width="529.16669" height="529.16669" x="-1.0172526e-05" y="-1.0172526e-05"/> <ellipse style="fill:#dde9af;fill-opacity:1;stroke:none;stroke-width:10;stroke-linecap:round;stroke-linejoin:round;stroke-opacity:0.286275" id="path124303" cx="256.07761" cy="463.04443" rx="230.35292" ry="46.772167"/> <path style="fill:#a5c535;fill-opacity:1;stroke-width:0.999993" d="m 376.10814,142.84704 9.60443,3.79058 6.87003,-11.38645 C 408.78477,108.39959 430.45543,61.106318 423.29709,57.365095 421.96931,56.671524 406.2054,46.748125 398.9224,42.468504 l -13.24002,-7.783988 -0.11018,8.066615 c -0.26886,19.690045 -9.39689,45.281897 -25.58892,71.741089 -8.56071,13.98908 -9.39623,20.09117 -2.69353,19.67249 1.89535,-0.11835 13.75486,7.08693 18.81742,8.68378 z" id="path61706"/> <path style="fill:#accb3e;fill-opacity:1;stroke-width:1" d="m 369.74572,138.95008 7.97163,2.1481 7.17589,-10.55671 c 17.62183,-25.92506 36.44286,-73.313438 30.3454,-76.404882 -1.13106,-0.573073 -7.10443,-3.988252 -13.27443,-7.588626 l -11.21843,-6.545776 -0.65245,7.734478 c -1.59252,18.87931 -11.45562,44.020936 -27.6492,70.479176 -8.56148,13.98861 -9.72287,19.89111 -3.74384,19.02918 1.69067,-0.24371 6.66129,0.5235 11.04572,1.70499 z" id="path990"/> <path id="path122051" style="fill:#b4cf4f;fill-opacity:1;stroke:none;stroke-width:0.264583px;stroke-linecap:butt;stroke-linejoin:miter;stroke-opacity:1" d="m 394.68299,49.236726 c 1.73034,33.639999 -9.53011,63.312134 -32.74044,82.143614 l 7.80346,7.56967 c 18.77615,-21.58238 36.7167,-43.848293 38.6764,-79.189587 z"/> <path style="fill:#a5c535;fill-opacity:1;stroke-width:1" d="m 140.6924,475.07479 c -2.54167,-4.93644 -3.85622,-5.90687 -9.70936,-7.1669 -8.20397,-1.76622 -12.67853,-5.8503 -16.30006,-14.87767 -1.50344,-3.74749 -5.05303,-8.30708 -7.89078,-10.13603 -6.820744,-4.39574 -12.486634,-11.76207 -14.844384,-19.29911 -1.053396,-3.3673 -2.920061,-6.11836 -4.148156,-6.11339 -1.2283,0.005 -5.181824,-2.46716 -8.786358,-5.49309 -5.333661,-4.47796 -7.075231,-7.80669 -9.357353,-17.88449 -2.169853,-9.58249 -3.911256,-13.06074 -7.701119,-15.38201 -5.842091,-3.57825 -12.463723,-13.90636 -14.117464,-22.01967 -0.65569,-3.21676 -0.635853,-10.00406 0.04404,-15.08283 1.166947,-8.71662 0.85744,-9.52917 -5.522503,-14.49908 -14.528575,-11.31763 -17.446849,-35.4384 -7.424018,-61.36242 4.514436,-11.67659 4.526674,-12.37946 0.291823,-16.76696 -9.776942,-10.12945 -11.23444,-20.98822 -5.088378,-37.90889 2.832005,-7.79672 5.754396,-12.60749 12.045948,-19.82896 8.130006,-9.33229 8.32335,-9.79224 9.098738,-21.64878 0.717436,-10.97155 1.628236,-13.47315 9.658035,-26.52744 14.867132,-24.16598 29.79393,-37.50175 54.185899,-48.400562 5.66739,-2.532317 11.40726,-6.858597 15.09435,-11.377008 16.85283,-20.652378 47.26654,-29.114999 83.10146,-23.123029 6.40367,1.070742 15.4033,1.164342 19.99921,0.207932 24.27143,-5.050969 55.8298,8.612088 76.06281,32.931021 4.47477,5.378441 9.15125,8.708416 20.13378,14.336866 8.61894,4.41711 15.57194,8.99338 17.49134,11.5135 l 38.70267,27.47183 c 1.24214,1.38058 3.63781,4.76973 5.32394,7.53097 3.8615,6.32362 6.27552,7.75218 16.98566,10.05112 30.73012,6.59709 56.01685,28.10055 63.87487,54.31837 1.45585,4.8573 4.94512,11.45376 7.75408,14.65883 18.93274,21.60269 28.37052,59.75564 19.97272,80.74135 -1.51593,3.78805 -3.23206,12.94047 -3.81384,20.33858 -2.38323,30.30713 -12.90304,54.6017 -29.04759,67.08298 -4.43471,3.42841 -10.37356,6.87801 -13.19752,7.66575 -4.58847,1.27996 -5.52747,2.46021 -8.82988,11.09883 -4.88446,12.77674 -15.74148,27.10088 -24.69933,32.58677 -7.55271,4.62543 -17.81405,5.73274 -26.07921,2.81426 -3.9287,-1.38721 -5.71795,-0.72691 -9.3065,3.43425 -9.86441,11.43855 -23.97692,22.68754 -32.67951,26.04865 -10.65546,4.11533 -25.34089,3.76779 -32.7581,-0.77522 -4.52273,-2.77014 -5.80797,-2.59784 -10.54799,1.41469 -6.85264,5.80082 -22.71209,10.53946 -30.99604,9.26132 -3.50744,-0.54122 -9.45156,-2.86699 -13.20906,-5.16843 -6.35002,-3.88936 -7.2036,-3.8875 -12.1043,0.0293 -11.30092,9.03188 -30.71802,7.68818 -38.70858,-2.67874 -3.48898,-4.52658 -4.14693,-4.63706 -11.68226,-1.961 -8.65729,3.07446 -17.87224,3.10567 -22.81663,0.0773 -1.71522,-1.05056 -5.84485,-0.89571 -9.17703,0.34407 -11.98412,4.45902 -23.75689,0.24631 -29.2778,-10.47657 z" id="path908"/> <path style="fill:#accb3e;fill-opacity:1;stroke-width:1" d="m 424.72928,60.461044 c 1.62884,-2.659361 -6.54157,-12.554621 -17.39124,-19.199997 -10.84974,-6.645413 -19.96853,-9.558453 -21.59738,-6.899092 -1.62877,2.659241 5.10963,9.458662 15.95937,16.104075 10.84967,6.645376 21.40044,12.654314 23.02925,9.995014 z" id="path992"/> <path style="fill:#b8d157;fill-opacity:1;stroke-width:1" d="m 302.16612,161.64397 c 2.61117,-2.26215 21.69181,-6.94439 25.78975,-6.3286 1.01236,0.15196 6.15655,-3.91251 11.43174,-9.0325 l 9.59118,-9.30904 -2.23589,-6.24104 c -4.51014,-12.58904 -18.46077,-20.30598 -31.18225,-17.24883 -9.10908,2.18903 -21.50071,12.79381 -26.69592,22.84642 -3.40098,6.58061 -3.31889,7.3174 1.32657,11.91696 2.72335,2.69649 5.35024,7.02117 5.83751,9.6105 1.11647,5.93301 2.60166,6.84916 6.1384,3.78434 z" id="path988"/> <path style="fill:#b0cd47;fill-opacity:1;stroke-width:1" d="m 216.48861,116.57857 c 12.72404,-16.33408 41.51779,-26.323357 69.0695,-23.96203 19.71894,1.689994 19.14246,-0.11564 -4.69902,-14.718437 -12.45335,-7.62762 -18.76378,-10.503213 -25.43674,-11.591248 -35.212,-5.741442 -65.56824,21.744721 -52.39507,47.441245 5.06601,9.88203 7.55975,10.40639 13.46133,2.83047 z" id="path986"/> <path style="fill:#b0cd47;fill-opacity:1;stroke-width:1" d="m 437.59695,268.05023 c 10.45649,0.39254 17.47057,-3.57058 23.37214,-13.20587 6.1509,-10.04235 7.6064,-19.75465 4.96388,-33.12282 -3.38877,-17.14352 -10.66894,-26.1542 -31.38148,-38.84143 -9.5428,-5.84525 -19.1319,-10.90659 -21.30948,-11.24698 -3.41461,-0.53403 -3.19595,0.37396 1.59024,6.60425 17.86763,23.25841 24.37771,62.41266 13.3802,80.47337 -4.28266,7.03231 -2.40908,8.89672 9.3845,9.33948 z" id="path984"/> <path style="fill:#bcd35f;fill-opacity:1;stroke-width:1" d="m 354.36316,214.52562 c 19.76777,-4.75046 40.29565,-40.16022 32.31159,-55.73627 -8.43751,-16.46078 -36.82739,-19.99756 -45.59653,-5.68049 -1.86272,3.0412 -1.15551,5.11604 3.857,11.31492 3.97295,4.91334 6.42413,10.38528 6.94928,15.51317 0.88646,8.65729 -2.23272,22.91926 -6.55671,29.97889 -3.57606,5.83852 -1.17508,7.06349 9.03537,4.60978 z" id="path982"/> <path style="fill:#accb3e;fill-opacity:1;stroke-width:1" d="m 140.21092,106.42676 c 10.77584,-6.441519 26.52687,-11.679751 41.96816,-13.957083 11.99085,-1.768448 12.48996,-2.058098 17.63388,-10.235559 2.90954,-4.62984 6.9722,-9.398707 9.02355,-10.600147 6.9311,-4.0596 4.64777,-5.915014 -8.74767,-7.107962 -18.76673,-1.671377 -44.00471,4.586088 -55.82573,13.841225 -10.58689,8.288931 -17.31189,18.419475 -16.88056,25.428916 0.4605,7.48395 3.62402,8.13268 12.82837,2.63061 z" id="path980"/> <path style="fill:#b4cf4f;fill-opacity:1;stroke-width:1" d="m 221.40614,165.66377 c 15.61922,-15.37496 31.11471,-23.16939 47.1537,-23.71899 l 10.06124,-0.3448 5.83844,-9.43852 c 6.94412,-11.21696 14.88634,-18.9861 22.92448,-22.41602 3.22306,-1.37523 5.70725,-3.13679 5.52039,-3.91454 -0.74446,-3.09766 -27.04552,-8.125944 -39.87143,-7.622778 -41.13837,1.613934 -68.75104,28.777548 -58.95688,57.997868 3.48278,10.39067 4.7363,12.00819 7.32833,9.45672 z" id="path978"/> <path style="fill:#accb3e;fill-opacity:1;stroke-width:1" d="m 480.94739,330.58113 c 6.88772,-3.25275 14.53102,-18.37573 15.80904,-31.27964 1.34985,-13.62939 -4.16707,-34.18577 -13.27809,-49.47478 -4.18142,-7.01678 -7.99694,-12.66311 -8.47888,-12.54724 -0.48161,0.11574 -2.23035,4.74833 -3.88547,10.29447 -1.65507,5.54618 -4.45254,11.6822 -6.2165,13.63567 -2.70815,2.99895 -2.45054,5.68578 1.65514,17.26475 5.0289,14.18266 7.78715,34.89525 6.08235,45.67457 -1.18112,7.46806 1.58553,9.60893 8.31241,6.4322 z" id="path976"/> <path style="fill:#b4cf4f;fill-opacity:1;stroke-width:1" d="m 383.6597,278.36422 c 24.46634,0.21709 38.41676,-11.22194 43.09257,-35.33495 4.00741,-20.66666 -7.46408,-53.4788 -24.46796,-69.98579 -3.21124,-3.1174 -6.17089,-5.58815 -6.57685,-5.49059 -0.40567,0.0975 -1.26903,3.60192 -1.91778,7.78739 -0.8554,5.51843 -3.70511,11.46563 -10.36861,21.63818 l -9.18905,14.02824 2.54934,12.23255 c 2.61532,12.54966 1.8001,31.04384 -1.98591,45.05109 -2.43765,9.01884 -1.59091,9.98114 8.86425,10.07388 z" id="path974"/> <path style="fill:#bcd35f;fill-opacity:1;stroke-width:1" d="m 291.55389,233.22119 c 18.58415,1.37091 37.11451,-8.60889 47.27582,-25.46098 10.56188,-17.51706 9.29929,-35.51695 -3.02111,-43.06315 -5.00979,-3.06847 -8.18884,-3.34919 -17.37178,-1.53398 -16.66176,3.29354 -19.78542,5.65343 -23.46403,17.72669 -3.62524,11.89821 -13.03736,27.78303 -19.68584,33.22323 -3.64129,2.97973 -4.68292,4.78543 -4.29855,7.45176 0.71248,4.94249 11.35959,10.97724 20.56525,11.65629 z" id="path972"/> <path style="fill:#b8d157;fill-opacity:1;stroke-width:1" d="m 230.43581,227.15917 c 13.66809,0.99005 35.25672,-10.17997 46.5232,-24.07132 6.50492,-8.02036 13.1322,-24.04972 14.24419,-34.45225 1.72645,-16.15051 -11.20467,-24.01534 -31.47597,-19.14362 -18.81431,4.52129 -25.21064,9.38007 -36.40151,27.65102 -8.21912,13.41907 -9.74015,17.11373 -10.19243,24.75176 -0.53994,9.12509 3.50733,19.93529 8.64788,23.09853 1.55936,0.95944 5.45379,1.93427 8.65449,2.16612 z" id="path970"/> <path style="fill:#b0cd47;fill-opacity:1;stroke-width:1" d="m 147.48328,175.15576 c 12.18431,-12.04593 24.87469,-20.10773 42.46332,-26.97567 13.51035,-5.27549 15.1366,-6.40848 16.56797,-11.54313 1.26434,-4.53561 0.46566,-7.04203 -3.92718,-12.32454 -3.03279,-3.64714 -6.69899,-11.01708 -8.14704,-16.3778 -1.44808,-5.36066 -3.25167,-10.125651 -4.0079,-10.588839 -3.29118,-2.015828 -36.6321,8.075299 -47.40341,14.347339 -11.03601,6.4262 -12.37461,7.80874 -20.663,21.34091 -7.41803,12.11115 -8.77819,15.52042 -8.34635,20.91695 0.77238,9.64785 8.64731,21.4561 17.38701,26.07104 l 7.27089,3.83935 z" id="path968"/> <path style="fill:#b0cd47;fill-opacity:1;stroke-width:1" d="m 427.532,367.76423 c 21.31408,0.72971 35.79341,-16.41549 39.01258,-46.19561 1.28379,-11.87626 -3.20348,-38.88033 -7.75101,-46.6444 -2.4834,-4.24014 -3.20755,-4.36756 -11.0305,-1.94161 -4.96374,1.53929 -12.02728,1.78188 -17.34925,0.59583 -7.65742,-1.7065 -10.14054,-1.23911 -16.89562,3.17999 l -7.91899,5.18047 2.27929,12.33268 c 2.46549,13.34025 1.44001,34.33709 -2.32607,47.62675 -1.29639,4.57443 -1.72445,10.4128 -0.95128,12.9741 1.98235,6.56706 12.6033,12.53824 22.93085,12.8918 z" id="path966"/> <path style="fill:#b8d157;fill-opacity:1;stroke-width:1" d="m 330.34121,316.95502 c 10.3008,-2.15874 17.45234,-8.41102 26.51548,-23.18132 12.59514,-20.5235 18.01019,-47.11391 14.08569,-69.14748 l -1.79965,-10.10391 -5.29805,3.2046 c -6.91701,4.18382 -13.86483,5.40557 -20.14769,3.54277 -3.88472,-1.1517 -6.41772,-0.28446 -10.84995,3.71517 -3.18015,2.86972 -8.42146,6.6176 -11.64726,8.32859 -5.82093,3.08749 -5.88556,3.22646 -8.5699,18.42816 -3.00483,17.01672 -5.54496,25.92475 -10.83408,37.99438 -4.403,10.04749 -1.8636,15.45623 11.02038,23.47312 7.95547,4.94647 9.84994,5.35424 17.52503,3.74592 z" id="path964"/> <path style="fill:#accb3e;fill-opacity:1;stroke-width:1" d="m 450.67803,402.61609 c 9.53599,-2.29523 19.45817,-10.36586 25.93574,-21.09574 4.21847,-6.98105 10.99153,-27.57412 12.3067,-37.39794 l 1.22446,-9.14607 -10.05189,2.41555 c -9.96791,2.39542 -10.09373,2.50019 -15.05667,12.53939 -3.64848,7.38008 -6.92649,11.60445 -12.09586,15.58676 -6.20407,4.77954 -7.73056,7.03446 -12.20307,18.02636 -2.81161,6.90988 -5.39568,13.6098 -5.74236,14.88869 -1.21256,4.47329 6.22979,6.45839 15.68295,4.183 z" id="path962"/> <path style="fill:#accb3e;fill-opacity:1;stroke-width:1" d="m 76.417356,177.83532 c 5.167455,-6.01809 14.327972,-15.07319 20.35683,-20.12254 9.720674,-8.14142 11.339384,-10.23197 14.300344,-18.46864 2.13182,-5.93036 5.49313,-11.67364 9.29797,-15.88719 5.24346,-5.80635 5.67839,-6.92322 3.62098,-9.29807 -1.28602,-1.48453 -2.65995,-5.43667 -3.05309,-8.78267 -0.69414,-5.907901 -0.83546,-6.037748 -4.89017,-4.49382 -7.90955,3.0117 -25.191134,14.77548 -33.331376,22.68896 -11.60928,11.28606 -24.318779,32.72533 -25.618666,43.21552 -1.136578,9.17218 1.375257,16.85558 6.545712,20.02246 2.987667,1.82993 4.456484,0.80941 12.771287,-8.87412 z" id="path960"/> <path style="fill:#b4cf4f;fill-opacity:1;stroke-width:1" d="m 154.76674,246.31632 c 14.90649,-13.57808 24.75198,-20.70953 36.96131,-26.77263 l 14.72625,-7.31296 0.57009,-9.01948 c 0.31359,-4.9607 2.32528,-13.74961 4.47037,-19.53099 3.13405,-8.44645 3.34809,-11.42629 1.08935,-15.16803 -1.546,-2.56105 -3.71675,-7.89107 -4.82386,-11.84448 l -2.01293,-7.18795 -9.7424,2.96485 c -12.51375,3.80817 -32.23268,15.57123 -42.21714,25.18399 -19.48617,18.76073 -23.85254,46.87024 -9.73813,62.6909 5.20665,5.83615 8.72945,7.80734 10.71705,5.99684 z" id="path958"/> <path style="fill:#b4cf4f;fill-opacity:1;stroke-width:1" d="m 357.40893,383.07639 c 28.03161,4.34498 52.29226,-43.39221 44.22789,-87.0266 l -2.17054,-11.74434 -12.24993,-0.0924 c -6.7375,-0.0508 -13.07073,-0.59514 -14.07396,-1.20961 -1.25319,-0.76758 -4.42126,3.23137 -10.12365,12.77879 -5.95286,9.96665 -10.41148,15.51153 -15.76816,19.60907 -6.36957,4.87238 -7.72031,6.75807 -9.17963,12.81478 -4.45038,18.46985 -3.13017,35.71071 3.45489,45.11848 4.6453,6.63661 7.63761,8.47382 15.88261,9.75262 z" id="path956"/> <path style="fill:#bcd35f;fill-opacity:1;stroke-width:1" d="m 252.32677,324.54792 c 5.95601,-0.32831 12.50988,-2.69027 19.40298,-6.99245 9.18655,-5.73375 11.3698,-8.09002 18.59116,-20.06479 8.76071,-14.52817 14.13962,-30.10505 16.51355,-47.82653 l 1.47303,-10.99572 -9.82635,0.52212 c -14.08259,0.74822 -25.00873,-2.98734 -30.3433,-10.37405 l -4.18271,-5.79171 -10.22127,4.93177 c -13.37102,6.45168 -21.15402,13.90303 -30.61807,29.31343 -8.84545,14.40151 -11.42887,27.54637 -7.92776,40.32441 4.4923,16.39508 20.31828,27.88087 37.13874,26.95352 z" id="path954"/> <path style="fill:#b0cd47;fill-opacity:1;stroke-width:1" d="m 390.90286,429.28101 c 15.4656,-2.89673 25.24361,-11.5756 36.96618,-32.8111 5.23786,-9.48861 9.51934,-18.29154 9.5142,-19.5622 -0.006,-1.50274 -3.45959,-2.51824 -9.87987,-2.9056 -7.89848,-0.47637 -11.71392,-1.83101 -19.09687,-6.78024 l -9.22636,-6.1848 -7.15852,9.58136 c -4.19619,5.61691 -8.73342,14.00177 -10.96435,20.26475 -2.0932,5.87588 -6.03984,15.41572 -8.77029,21.19953 l -4.96444,10.51614 6.93862,4.24986 c 5.74307,3.51761 8.61051,3.93671 16.64159,2.43247 z" id="path952"/> <path style="fill:#accb3e;fill-opacity:1;stroke-width:1" d="m 411.91915,449.73034 c 11.17694,-3.72542 23.50579,-19.29745 28.01345,-35.38238 0.69933,-2.49537 -0.40599,-3.99907 -4.35063,-5.91841 -5.16467,-2.51323 -5.45157,-2.36218 -12.29928,6.47135 -3.85604,4.97454 -10.24698,11.02609 -14.2019,13.44816 -6.68612,4.09463 -16.11236,16.23738 -15.28316,19.68765 0.68977,2.87027 11.547,3.88505 18.12152,1.69363 z" id="path950"/> <path style="fill:#b0cd47;fill-opacity:1;stroke-width:1" d="m 86.346676,247.188 c 7.9669,-10.72864 23.351034,-26.00099 36.692914,-36.42628 5.88823,-4.60104 8.06559,-7.48764 10.14767,-13.45297 l 2.65082,-7.59501 -8.50192,-5.20739 c -9.60334,-5.88201 -15.57742,-13.25567 -16.96097,-20.93459 -0.5166,-2.8671 -1.51049,-5.56276 -2.20877,-5.99046 -1.91303,-1.17172 -18.260562,13.79445 -29.017169,26.5653 -16.48278,19.5693 -23.401641,41.14154 -18.384434,57.32049 2.16683,6.98716 3.61715,8.72439 10.164115,12.17469 l 7.636567,4.02479 z" id="path948"/> <path style="fill:#b8d157;fill-opacity:1;stroke-width:1" d="m 181.64021,323.25682 c 16.17537,1.84809 35.59131,-6.31621 31.77684,-13.36189 -10.96485,-20.25332 -5.81014,-47.93023 12.7686,-68.55764 l 5.30348,-5.88829 -7.327,-3.21369 c -4.02993,-1.76737 -9.12825,-5.41475 -11.32968,-8.10498 -5.04424,-6.16421 -7.04557,-5.93853 -22.06369,2.48834 -19.56049,10.97569 -28.29683,19.18164 -37.15104,34.89538 -6.81862,12.10158 -7.78408,15.14923 -7.69375,24.29309 0.19795,20.04286 14.48585,35.02413 35.71624,37.44968 z" id="path946"/> <path style="fill:#accb3e;fill-opacity:1;stroke-width:1" d="m 47.414635,240.21324 c 3.290753,-4.45718 5.21195,-8.87478 5.167102,-11.883 -0.09379,-6.29246 4.914626,-22.93394 8.853772,-29.41825 2.903616,-4.78079 2.750005,-5.36521 -2.215609,-8.40662 -6.415242,-3.92931 -8.47869,-2.38768 -18.407639,13.75257 -8.597087,13.98262 -10.191729,26.55193 -4.512994,35.65109 2.107295,3.37664 4.291696,6.42274 4.854206,6.76907 0.562533,0.34644 3.379939,-2.56281 6.261162,-6.46486 z" id="path944"/> <path style="fill:#b8d157;fill-opacity:1;stroke-width:1" d="m 266.61285,399.4614 c 21.50564,-2.20217 48.5795,-29.8587 61.73012,-63.05863 3.68324,-9.2988 3.87733,-11.24233 1.16156,-11.63535 -17.50826,-2.53346 -19.43586,-3.35815 -27.54929,-11.7863 l -7.86961,-8.17493 -5.29735,6.30966 c -8.15762,9.71643 -18.54983,16.19804 -30.14474,18.80132 -10.30907,2.31452 -10.65699,2.57765 -14.7492,11.15416 -8.23839,17.26572 -9.79022,36.07526 -3.79134,45.9534 4.65121,7.65893 16.92717,13.418 26.50985,12.43667 z" id="path942"/> <path style="fill:#b4cf4f;fill-opacity:1;stroke-width:1" d="m 299.74905,454.67447 c 9.53738,2.21598 25.94971,-2.12565 37.71991,-9.97822 9.69822,-6.47021 11.18238,-8.2454 22.92889,-27.42352 6.90774,-11.27802 13.26709,-22.97644 14.13185,-25.99649 l 1.57234,-5.49101 -4.70063,1.74496 c -7.5007,2.78442 -19.29341,1.87269 -25.59619,-1.97896 -8.43237,-5.15659 -12.30212,-10.94714 -15.34648,-22.98371 l -2.69424,-10.65216 -9.56715,15.74043 c -5.26161,8.65736 -11.13106,20.63904 -13.04565,26.62431 -1.91462,5.98534 -7.73938,18.8797 -12.94396,28.65422 l -9.46285,17.77179 3.575,5.10837 c 4.44398,6.34999 5.42986,7.00041 13.42673,8.85834 z" id="path940"/> <path style="fill:#b0cd47;fill-opacity:1;stroke-width:1" d="m 334.49651,481.87061 c 14.30357,1.00003 30.53775,-9.01086 46.47026,-28.65617 5.9718,-7.36345 10.71364,-13.98778 10.53755,-14.72074 -0.17604,-0.73252 -4.62904,-1.90953 -9.89535,-2.61453 -5.96074,-0.79806 -11.03157,-2.6305 -13.43367,-4.8547 -4.16716,-3.85849 -6.81926,-2.92114 -10.98679,3.88304 -3.85307,6.29077 -21.63741,19.38468 -30.98098,22.80999 -10.72274,3.93098 -11.41679,4.91595 -8.67678,12.31354 2.50215,6.75558 8.98809,11.28181 16.96576,11.83957 z" id="path938"/> <path style="fill:#b4cf4f;fill-opacity:1;stroke-width:1" d="m 92.215346,341.13599 c 3.25468,0.57537 5.09515,-1.59308 17.175704,-20.23696 7.44177,-11.4847 17.20972,-24.64926 21.70665,-29.25445 4.60674,-4.71756 8.16599,-9.63974 8.15268,-11.27464 -0.013,-1.59594 2.25961,-8.57985 5.05025,-15.51986 4.74428,-11.79848 4.81347,-12.78079 1.06501,-15.12121 -6.1051,-3.81313 -12.81289,-14.99653 -15.24588,-25.42244 l -2.18559,-9.36594 -8.51523,6.65265 c -23.030064,17.99273 -43.636645,48.19487 -47.747604,69.98159 -4.423126,23.44092 5.286228,46.86422 20.54401,49.56126 z" id="path936"/> <path style="fill:#b0cd47;fill-opacity:1;stroke-width:1" d="m 57.959553,323.8388 c 7.191808,-1.49254 7.652475,-2.28253 6.707978,-11.50334 -1.073495,-10.48346 1.097367,-24.67 5.749501,-37.57272 3.903006,-10.82489 3.884639,-11.02191 -1.256496,-13.50826 -2.869529,-1.38784 -7.626317,-6.00869 -10.570701,-10.26876 l -5.353322,-7.74547 -7.215581,13.4738 c -7.701262,14.3808 -12.090972,30.9551 -11.283384,42.60297 1.056172,15.23457 12.047203,26.84072 23.221767,24.52163 z" id="path934"/> <path style="fill:#bcd35f;fill-opacity:1;stroke-width:1" d="m 181.63704,404.59982 c 9.60131,1.18832 21.59846,-2.20393 32.47716,-9.18296 12.17505,-7.8107 16.5647,-13.80248 16.00683,-21.84919 -0.6273,-9.04816 2.0791,-21.29141 7.23749,-32.74058 2.63696,-5.85296 3.44144,-9.74097 2.15085,-10.39569 -1.13409,-0.57493 -6.21442,-3.42919 -11.29039,-6.34144 l -9.22861,-5.29586 -9.00921,5.12618 c -8.49891,4.83577 -26.51549,7.75802 -30.9783,5.02457 -2.67098,-1.63597 -16.5686,24.88224 -18.79455,35.86204 -3.29869,16.27139 0.87917,30.35459 11.0462,37.23606 1.26479,0.85665 5.93709,2.0069 10.38238,2.55711 z" id="path932"/> <path style="fill:#b4cf4f;fill-opacity:1;stroke-width:1" d="m 281.89238,488.65071 c 5.81033,0.11313 11.99251,-1.62659 17.92076,-5.04309 10.70206,-6.16755 11.8456,-7.78319 10.76145,-15.20502 -0.8031,-5.49792 -0.99238,-5.64919 -8.71891,-6.96713 -9.00019,-1.53517 -15.70347,-5.18107 -20.18256,-10.97714 -2.77847,-3.59549 -3.44931,-3.62402 -6.66037,-0.28355 -1.96379,2.04307 -6.68084,6.62658 -10.48225,10.18563 -7.86811,7.36652 -8.04402,8.12835 -3.79207,16.42346 4.16104,8.11761 10.47373,11.65888 21.15395,11.86684 z" id="path930"/> <path style="fill:#b4cf4f;fill-opacity:1;stroke-width:1" d="m 83.262989,376.87889 c 5.772755,-1.38727 7.561493,-2.61036 7.235656,-4.94767 -0.237972,-1.70767 0.614922,-7.48783 1.895401,-12.84484 l 2.32816,-9.73995 -9.543667,-4.71804 c -7.086353,-3.50325 -10.464658,-6.24068 -13.120742,-10.63201 -3.516604,-5.81379 -3.68419,-5.88832 -9.889631,-4.39706 -5.851391,1.40616 -6.43283,2.02914 -7.960221,8.52973 -2.046625,8.70996 0.21837,22.63696 4.774139,29.35548 5.205006,7.67602 15.253446,11.56378 24.280905,9.39436 z" id="path928"/> <path style="fill:#b8d157;fill-opacity:1;stroke-width:1" d="m 227.59859,471.41491 c 21.47185,-0.0863 47.95552,-25.01122 64.0406,-60.27152 4.00279,-8.77449 7.27398,-16.90183 7.26928,-18.06064 -0.005,-1.15906 -3.89053,0.42287 -8.63526,3.51499 -11.087,7.22528 -27.93743,10.56558 -38.24785,7.58205 -6.63948,-1.92128 -8.93395,-3.47034 -13.51075,-9.12123 -3.03221,-3.74377 -5.68106,-6.71166 -5.88642,-6.59535 -0.2049,0.11635 -4.62908,3.6455 -9.83057,7.8426 l -9.45724,7.63101 -2.73026,11.94974 c -1.50159,6.57239 -5.15426,17.05749 -8.11698,23.30029 -2.96281,6.24282 -5.21644,12.05979 -5.00813,12.9266 0.20838,0.8671 2.48077,4.23894 5.04986,7.49352 5.64443,7.15053 15.61092,11.84587 25.06372,11.80794 z" id="path926"/> <path style="fill:#b8d157;fill-opacity:1;stroke-width:1" d="m 125.05148,410.57873 c 4.92277,0.9208 5.4131,0.46157 15.98241,-14.96928 9.86044,-14.39599 11.093,-17.04975 12.8795,-27.73518 1.08668,-6.49875 4.89692,-18.33653 8.46727,-26.30621 l 6.4915,-14.49035 -8.51582,-5.2159 c -9.38258,-5.74678 -16.39804,-14.28469 -18.72434,-22.78765 -0.83235,-3.04237 -2.08203,-5.39495 -2.77716,-5.22791 -3.30719,0.79477 -16.1543,17.07282 -25.78631,32.67285 -25.925876,41.98963 -20.803024,77.927 11.98295,84.05963 z" id="path924"/> <path style="fill:#b8d157;fill-opacity:1;stroke-width:1" d="m 231.6465,489.2108 c 13.00598,1.28807 24.53556,-6.35502 21.33527,-14.14339 -1.27686,-3.10755 -3.04924,-3.14057 -12.81157,-0.23875 -6.23135,1.85225 -14.02265,2.94185 -17.314,2.42125 -7.11947,-1.12598 -8.71788,0.61702 -5.06907,5.52753 3.83777,5.1647 4.59399,5.51573 13.85937,6.43336 z" id="path922"/> <path style="fill:#b8d157;fill-opacity:1;stroke-width:1" d="m 91.330933,411.67026 c 3.337663,0.7258 7.619733,0.41108 9.515707,-0.69943 2.87162,-1.68191 2.92079,-2.70033 0.29475,-6.09858 -1.733964,-2.24372 -3.654454,-4.3869 -4.267844,-4.7626 -0.6134,-0.3757 -2.42612,-4.48691 -4.02819,-9.13601 l -2.912976,-8.45287 -6.887347,0.82346 c -3.787994,0.45289 -7.388668,1.55388 -8.001491,2.44653 -1.790013,2.60795 2.276052,15.39639 6.336749,19.92956 2.051718,2.29045 3.76451,4.2692 3.806287,4.39734 0.04199,0.1282 2.806696,0.82681 6.144355,1.5526 z" id="path920"/> <path style="fill:#b8d157;fill-opacity:1;stroke-width:1" d="m 196.77265,479.90034 c 10.41078,-2.98719 12.98315,-6.31271 7.48689,-9.67914 -2.19674,-1.3455 -5.79745,-4.94345 -8.00164,-7.99552 l -4.00749,-5.5492 -5.38942,4.67406 c -2.9642,2.57069 -7.48277,5.71091 -10.04133,6.97806 -6.16081,3.05147 -4.62701,6.67096 4.62732,10.9183 4.99751,2.2936 9.01255,2.46478 15.32567,0.65344 z" id="path918"/> <path style="fill:#b8d157;fill-opacity:1;stroke-width:1" d="m 120.79974,440.03096 c 4.08148,-0.33469 4.27759,-0.704 5.93011,-11.16774 l 1.70902,-10.82167 -9.09477,-2.15828 c -8.43667,-2.00213 -19.436764,-0.0548 -21.838224,3.866 -3.25681,5.31729 14.736044,20.98338 23.293864,20.28169 z" id="path916"/> <path style="fill:#bcd35f;fill-opacity:1;stroke-width:1" d="m 161.35088,465.73793 c 3.77453,-0.0152 10.47946,-2.00898 14.89984,-4.43075 6.90967,-3.78555 9.25547,-6.39503 16.72396,-18.60423 5.92245,-9.68277 9.38942,-17.41742 10.89489,-24.30946 l 2.20803,-10.10825 -9.84701,1.84428 c -17.93095,3.35853 -30.18561,-1.02096 -37.84831,-13.52599 -2.32287,-3.79069 -4.87428,-6.73497 -5.66982,-6.54277 -0.79573,0.19224 -5.21203,6.50112 -9.81435,14.01998 -7.36133,12.02569 -8.49634,15.15796 -9.43645,26.03075 -0.79776,9.22748 -0.0164,14.23233 3.08295,19.74759 5.24905,9.34066 15.52151,15.91615 24.80616,15.87903 z" id="path914"/> <path style="fill:#bcd35f;fill-opacity:1;stroke-width:1" d="m 135.22252,462.6418 c 1.06731,-0.53926 1.28866,-1.37984 0.4904,-1.86877 -0.79766,-0.48857 -2.92767,-4.15244 -4.73333,-8.14201 -2.90036,-6.40832 -3.77859,-7.19889 -7.53567,-6.78323 -4.07077,0.45038 -4.17603,0.70309 -2.46056,5.90493 1.88167,5.70575 10.87859,12.58599 14.23892,10.88894 z" id="path912"/> <path style="fill:#bcd35f;fill-opacity:1;stroke-width:1" d="m 160.75482,481.28434 c 10.65069,-0.32473 9.01505,-8.75831 -1.85127,-9.54542 -3.29782,-0.23885 -7.05419,-1.08239 -8.34738,-1.87447 -4.04383,-2.47682 -6.39674,0.36137 -3.51234,4.23685 4.09887,5.50737 7.65029,7.36787 13.71099,7.18304 z" id="path910"/> <ellipse style="fill:#b0cd47;fill-opacity:1;stroke-width:10;stroke-linecap:round;stroke-linejoin:round;stroke-opacity:0.286275" id="path68972" cx="11.165462" cy="155.94496" rx="11.782227" ry="5.5810547" transform="rotate(-36.62301)"/> <ellipse style="fill:#b4cf4f;fill-opacity:1;stroke-width:10;stroke-linecap:round;stroke-linejoin:round;stroke-opacity:0.286275" id="ellipse69817" cx="245.48854" cy="73.636108" rx="11.782227" ry="5.5810547"/> <ellipse style="fill:#bcd35f;fill-opacity:1;stroke-width:10;stroke-linecap:round;stroke-linejoin:round;stroke-opacity:0.286275" id="path72173" cx="10.982208" cy="308.9855" rx="36.380207" ry="14.882812" transform="rotate(-50.840328)"/> <ellipse style="fill:#bcd35f;fill-opacity:1;stroke-width:10;stroke-linecap:round;stroke-linejoin:round;stroke-opacity:0.286275" id="ellipse72277" cx="-86.802307" cy="305.44809" rx="36.380207" ry="14.882812" transform="rotate(-50.840328)"/> <ellipse style="fill:#bcd35f;fill-opacity:1;stroke-width:10;stroke-linecap:round;stroke-linejoin:round;stroke-opacity:0.286275" id="ellipse72279" cx="-263.65466" cy="261.76956" rx="36.380207" ry="14.882812" transform="rotate(-64.629936)"/> <ellipse style="fill:#b8d157;fill-opacity:1;stroke-width:10;stroke-linecap:round;stroke-linejoin:round;stroke-opacity:0.286275" id="ellipse72281" cx="-165.21031" cy="234.62943" rx="36.380207" ry="14.882812" transform="rotate(-56.721319)"/> <ellipse style="fill:#b8d157;fill-opacity:1;stroke-width:10;stroke-linecap:round;stroke-linejoin:round;stroke-opacity:0.286275" id="ellipse72385" cx="-15.701273" cy="254.71828" rx="36.380207" ry="14.882812" transform="rotate(-45.75849)"/> <ellipse style="fill:#c2d66b;fill-opacity:1;stroke-width:10;stroke-linecap:round;stroke-linejoin:round;stroke-opacity:0.286275" id="ellipse72489" cx="-48.521996" cy="356.37991" rx="36.380207" ry="14.882812" transform="rotate(-50.840328)"/> <ellipse style="fill:#c2d66b;fill-opacity:1;stroke-width:10;stroke-linecap:round;stroke-linejoin:round;stroke-opacity:0.286275" id="ellipse72491" cx="-157.42377" cy="381.09048" rx="36.380207" ry="14.882812" transform="rotate(-50.840328)"/> <ellipse style="fill:#c2d66b;fill-opacity:1;stroke-width:10.0878;stroke-linecap:round;stroke-linejoin:round;stroke-opacity:0.286275" id="ellipse72493" cx="-406.30392" cy="309.92435" rx="24.062414" ry="11.836555" transform="matrix(0.35395847,-0.93526114,0.98466295,0.17446742,0,0)"/> <ellipse style="fill:#bcd35f;fill-opacity:1;stroke-width:10.0878;stroke-linecap:round;stroke-linejoin:round;stroke-opacity:0.286275" id="ellipse72495" cx="-389.05423" cy="369.22028" rx="24.062414" ry="11.836555" transform="matrix(0.35395847,-0.93526114,0.98466295,0.17446742,0,0)"/> <ellipse style="fill:#bcd35f;fill-opacity:1;stroke-width:10.0878;stroke-linecap:round;stroke-linejoin:round;stroke-opacity:0.286275" id="ellipse72497" cx="-316.75565" cy="377.65872" rx="24.062414" ry="11.836555" transform="matrix(0.35395847,-0.93526114,0.98466295,0.17446742,0,0)"/> <ellipse style="fill:#bcd35f;fill-opacity:1;stroke-width:10.0878;stroke-linecap:round;stroke-linejoin:round;stroke-opacity:0.286275" id="ellipse72499" cx="-222.01518" cy="411.61801" rx="24.062414" ry="11.836555" transform="matrix(0.35395847,-0.93526114,0.98466295,0.17446742,0,0)"/> <ellipse style="fill:#c2d66b;fill-opacity:1;stroke-width:10.0878;stroke-linecap:round;stroke-linejoin:round;stroke-opacity:0.286275" id="ellipse72501" cx="-148.34114" cy="365.82114" rx="24.062414" ry="11.836555" transform="matrix(0.35395847,-0.93526114,0.98466295,0.17446742,0,0)"/> <ellipse style="fill:#b4cf4f;fill-opacity:1;stroke-width:10.0878;stroke-linecap:round;stroke-linejoin:round;stroke-opacity:0.286275" id="ellipse72503" cx="-41.187378" cy="198.93073" rx="24.062414" ry="11.836555" transform="matrix(0.66011197,-0.75116722,0.8605069,0.50943878,0,0)"/> <ellipse style="fill:#b4cf4f;fill-opacity:1;stroke-width:10.0878;stroke-linecap:round;stroke-linejoin:round;stroke-opacity:0.286275" id="ellipse72505" cx="-193.86357" cy="168.69749" rx="24.062414" ry="11.836555" transform="matrix(0.41379602,-0.91036962,0.97129409,0.23788188,0,0)"/> <ellipse style="fill:#b8d157;fill-opacity:1;stroke-width:10.0878;stroke-linecap:round;stroke-linejoin:round;stroke-opacity:0.286275" id="ellipse72571" cx="49.274738" cy="258.85449" rx="24.062414" ry="11.836555" transform="matrix(0.75238977,-0.65871817,0.78676424,0.61725362,0,0)"/> <ellipse style="fill:#b4cf4f;fill-opacity:1;stroke-width:10.0878;stroke-linecap:round;stroke-linejoin:round;stroke-opacity:0.286275" id="ellipse72675" cx="70.661087" cy="219.48607" rx="21.130739" ry="10.394433" transform="matrix(0.75238977,-0.65871817,0.78676424,0.61725362,0,0)"/> <ellipse style="fill:#b4cf4f;fill-opacity:1;stroke-width:10.0878;stroke-linecap:round;stroke-linejoin:round;stroke-opacity:0.286275" id="ellipse72677" cx="-294.89517" cy="114.2933" rx="21.130739" ry="10.394433" transform="matrix(0.21592639,-0.97640964,0.99951316,0.0312001,0,0)"/> <ellipse style="fill:#b0cd47;fill-opacity:1;stroke-width:10;stroke-linecap:round;stroke-linejoin:round;stroke-opacity:0.286275" id="ellipse74046" cx="-173.9543" cy="127.53638" rx="11.782227" ry="5.5810547" transform="rotate(-66.236149)"/> <ellipse style="fill:#b0cd47;fill-opacity:1;stroke-width:10;stroke-linecap:round;stroke-linejoin:round;stroke-opacity:0.286275" id="ellipse74048" cx="176.67007" cy="80.319176" rx="11.782227" ry="5.5810547" transform="rotate(-2.2286516)"/> <ellipse style="fill:#bcd35f;fill-opacity:1;stroke-width:10;stroke-linecap:round;stroke-linejoin:round;stroke-opacity:0.286275" id="ellipse74050" cx="167.1743" cy="298.45129" rx="11.782227" ry="5.5810547" transform="rotate(-35.217623)"/> <ellipse style="fill:#c2d66b;fill-opacity:1;stroke-width:10;stroke-linecap:round;stroke-linejoin:round;stroke-opacity:0.286275" id="ellipse74052" cx="-68.799103" cy="408.51205" rx="11.782227" ry="5.5810547" transform="rotate(-72.137038)"/> <ellipse style="fill:#b8d157;fill-opacity:1;stroke-width:10.0878;stroke-linecap:round;stroke-linejoin:round;stroke-opacity:0.286275" id="ellipse74054" cx="-365.08606" cy="453.81122" rx="29.575356" ry="14.548428" transform="matrix(0.35395846,-0.93526114,0.98466295,0.17446742,0,0)"/> <ellipse style="fill:#b8d157;fill-opacity:1;stroke-width:10.0878;stroke-linecap:round;stroke-linejoin:round;stroke-opacity:0.286275" id="ellipse74056" cx="-279.96228" cy="465.89578" rx="29.344555" ry="14.434896" transform="matrix(0.35395848,-0.93526114,0.98466295,0.17446742,0,0)"/> <ellipse style="fill:#b8d157;fill-opacity:1;stroke-width:10;stroke-linecap:round;stroke-linejoin:round;stroke-opacity:0.286275" id="ellipse74058" cx="-360.30429" cy="404.29446" rx="11.782227" ry="5.5810547" transform="rotate(-72.137038)"/> <ellipse style="fill:#b8d157;fill-opacity:1;stroke-width:10.0878;stroke-linecap:round;stroke-linejoin:round;stroke-opacity:0.286275" id="ellipse74060" cx="-266.63443" cy="434.71259" rx="29.344555" ry="14.434896" transform="matrix(0.13350477,-0.99104817,0.99862058,-0.05250663,0,0)"/> <ellipse style="fill:#b4cf4f;fill-opacity:1;stroke-width:10;stroke-linecap:round;stroke-linejoin:round;stroke-opacity:0.286275" id="ellipse74062" cx="-314.27972" cy="482.41272" rx="11.782227" ry="5.5810547" transform="rotate(-72.137038)"/> <ellipse style="fill:#b4cf4f;fill-opacity:1;stroke-width:10.0878;stroke-linecap:round;stroke-linejoin:round;stroke-opacity:0.286275" id="ellipse74064" cx="-404.96863" cy="431.82587" rx="29.344555" ry="14.434896" transform="matrix(-0.01740901,-0.99984845,0.9792954,-0.20243644,0,0)"/> <ellipse style="fill:#b4cf4f;fill-opacity:1;stroke-width:10.0878;stroke-linecap:round;stroke-linejoin:round;stroke-opacity:0.286275" id="ellipse74066" cx="-331.54239" cy="519.28503" rx="21.764261" ry="10.70607" transform="matrix(0.35395848,-0.93526114,0.98466295,0.17446742,0,0)"/> <ellipse style="fill:#b4cf4f;fill-opacity:1;stroke-width:10;stroke-linecap:round;stroke-linejoin:round;stroke-opacity:0.286275" id="ellipse74068" cx="-100.83321" cy="500.49377" rx="11.782227" ry="5.5810547" transform="rotate(-72.137038)"/> <ellipse style="fill:#b0cd47;fill-opacity:1;stroke-width:10;stroke-linecap:round;stroke-linejoin:round;stroke-opacity:0.286275" id="ellipse74070" cx="-146.36143" cy="555.99542" rx="11.782227" ry="5.5810547" transform="rotate(-72.137038)"/> <ellipse style="fill:#b0cd47;fill-opacity:1;stroke-width:10;stroke-linecap:round;stroke-linejoin:round;stroke-opacity:0.286275" id="ellipse74072" cx="-228.65335" cy="548.63696" rx="11.782227" ry="5.5810547" transform="rotate(-72.137038)"/> <ellipse style="fill:#b0cd47;fill-opacity:1;stroke-width:10;stroke-linecap:round;stroke-linejoin:round;stroke-opacity:0.286275" id="ellipse74074" cx="-99.468582" cy="597.43756" rx="8.7496996" ry="4.1445947" transform="rotate(-53.203876)"/> <ellipse style="fill:#c2d66b;fill-opacity:1;stroke:none;stroke-width:10;stroke-linecap:round;stroke-linejoin:round;stroke-opacity:0.286275" id="path123857" cx="375.00214" cy="-138.00404" rx="6.2850099" ry="1.3154672" transform="rotate(26.121766)"/> </g> </svg>